<?xml version="1.0" encoding="UTF-8" standalone="no"?><!DOCTYPE svg PUBLIC "-//W3C//DTD SVG 1.1//EN" "http://www.w3.org/Graphics/SVG/1.1/DTD/svg11.dtd"><svg width="100%" height="100%" viewBox="0 0 5364 3728" version="1.1" xmlns="http://www.w3.org/2000/svg" xmlns:xlink="http://www.w3.org/1999/xlink" xml:space="preserve" xmlns:serif="http://www.serif.com/" style="fill-rule:evenodd;clip-rule:evenodd;stroke-linejoin:round;stroke-miterlimit:2;"><g id="Background"><path d="M4152.19,1686.208c-107.719,146.923 -222.653,302.405 -242.064,328.664c-167.095,226.044 -165.544,228.324 -176.957,232.518c-14.705,5.403 -13.41,-3.373 -102.511,-64.63c-495.512,-340.665 -494.632,-341.221 -538.077,-370.253c-49.79,-33.272 -102.259,-72.501 -108.728,-72.079c-6.983,0.456 -249.66,292.925 -249.004,299.819c0.711,7.468 360.022,239.664 743.32,490.193c28.398,18.561 333.051,217.686 354.626,232.557c40.316,27.788 9.611,50.368 -18.545,87.372c-366.539,481.726 -364.723,483.038 -397.243,524.42c-111.597,142.011 -114.044,175.547 -154.716,146.683c-21.847,-15.504 -142.617,-101.212 -269.203,-199.167c-87.146,-67.436 -131.819,-87.861 -129.284,-109.943c1.574,-13.71 241.944,-322.873 257.388,-347.195c4.554,-7.172 -0.417,-9.429 -166.233,-113.083c-65.141,-40.72 -586.573,-366.673 -813.144,-510.789c-141.428,-89.959 -167.577,-95.471 -144.157,-127.588c1.972,-2.705 839.836,-1016.479 844.344,-1021.211c17.307,-18.164 24.362,-11.186 149.31,74.359c36.582,25.046 398.561,272.874 458.092,311.888c124.045,81.295 159.765,116.906 171.205,105.073c0.487,-0.504 172.291,-240.556 187.266,-261.48c71.456,-99.841 82.688,-123.325 100.41,-119.619c15.145,3.167 375.147,266.363 379.598,272.931c13.63,20.114 -1.05,21.559 -135.692,210.559Z" style="fill:#b63381;fill-opacity:1;"/><path d="M2153.294,2778.56c-80.79,90.551 -619.494,733.837 -639.824,746.381c-18.897,11.659 -21.818,1.603 -310.388,-195.923c-92.169,-63.09 -93.589,-61.91 -97.588,-70.681c-10.717,-23.502 8.137,-44.381 10.735,-47.258c50.382,-55.791 46.094,-59.305 591.05,-730.497c56.316,-69.361 62.17,-79.257 83.184,-62.671c50.964,40.227 405.049,276.951 409.354,286.562c6.431,14.357 -3.965,23.033 -46.523,74.087Z" style="fill:#b63381;fill-opacity:0.99;"/><path d="M3741.785,939.131c-126.582,154.981 -163.086,230.429 -192.96,212.008c-6.145,-3.789 -471.355,-328.822 -477.592,-337.45c-16.707,-23.112 -6.348,-27.367 72.865,-128.83c20.777,-26.614 19.527,-27.204 257.009,-334.764c89.175,-115.489 88.984,-116.91 101.037,-120.519c15.197,-4.55 15.705,1.023 164.201,111.18c325.642,241.568 331.009,241.735 330.414,259.45c-0.788,23.443 -100.503,135.837 -254.973,338.925Z" style="fill:#b63381;fill-opacity:0.99;"/><path d="M2099.866,1120.364c-54.443,-39.771 -54.914,-39.001 -59.437,-42.72c-36.634,-30.129 -65.156,-12.955 -268.688,-21.351c-100.031,-4.126 -120.295,0.936 -123.886,-26.988c-0.998,-7.764 0.85,-294.518 1.015,-320.128c0.573,-88.833 -8.086,-112.089 46.918,-111.78c452.803,2.54 454.664,-1.987 468.192,7.211c179.948,122.355 181.968,118.443 299.053,198.697c54.211,37.158 127.888,66.735 93.14,109.348c-61.521,75.444 -234.066,303.641 -254.172,330.233c-14.88,19.679 -22.855,7.009 -202.136,-122.521Z" style="fill:#b63381;fill-opacity:0.99;"/><path d="M2371.393,1527.089c-34.764,41.492 -34.28,41.482 -68.803,83.007c-228.871,278.195 -228.772,278.22 -248.971,302.157c-130.854,155.073 -128.992,165.177 -146.348,160.329c-38.285,-10.694 13.176,-62.907 18.797,-69.515c29.013,-34.106 121.002,-146.213 131.471,-158.971c114.618,-139.685 581.045,-705.505 587.76,-713.492c68.434,-81.392 81.959,-111.202 104.296,-98.226c25.971,15.087 0.456,33.374 -153.104,220.984c-52.384,63.999 -210.211,254.632 -225.098,273.728Z" style="fill:#b63381;fill-opacity:0.95;"/><path d="M1324.136,2751.479c26.203,-29.663 273.406,-333.677 287.291,-350.115c35.809,-42.395 31.344,-54.053 51.161,-49.932c40.112,8.342 5.272,48.067 2.571,51.147c-82.696,94.293 -460.818,562.736 -612.299,744.747c-48.259,57.986 -50.674,3.335 -49.619,-0.492c2.722,-9.872 257.261,-313.842 320.895,-395.355Z" style="fill:#b63381;fill-opacity:0.95;"/><path d="M3084.375,565.045c21.726,-25.615 273.035,-345.395 293.647,-370.068c16.345,-19.566 45.085,-9.234 34.976,18.76c-4.668,12.925 -201.459,257.46 -219.281,279.606c-180.042,223.722 -180.06,237.918 -199.56,227.828c-29.034,-15.024 -9.831,-26.982 90.218,-156.126Z" style="fill:#b63381;fill-opacity:0.95;"/><path d="M3746.229,1280.165c-60.122,88.513 -143.325,200.165 -156.116,217.33c-2.166,2.907 -25.344,34.01 -40.76,19.797c-19.399,-17.885 6.968,-41.038 66.911,-125.639c14.017,-19.783 168.575,-237.92 177.337,-245.762c6.457,-5.779 59.725,-13.461 20.441,39.824c-22.314,30.267 -62.434,86.862 -67.814,94.45Z" style="fill:#b63381;fill-opacity:0.95;"/><path d="M1525.3,745.503c-0.604,-123.39 -3.616,-125.509 5.71,-135.043c10.242,-10.471 24.931,-5.132 31.138,3.816c5.877,8.471 2.702,316.4 6.758,402.044c1.229,25.949 -30.425,34.736 -40.094,15.685c-2.083,-4.104 -3.03,-4.126 -3.513,-286.502Z" style="fill:#b63381;fill-opacity:0.94;"/><path d="M1860.897,381.57c23.129,0.031 46.258,0.063 69.388,0.094c-10.066,1.936 -9.325,3.759 -19.826,3.813c-2.357,0.012 -13.874,-1.436 -39.641,-0.951c-5.448,0.103 -4.897,-1.459 -9.921,-2.955Z" style="fill:#91667a;fill-opacity:0.02;"/><path d="M2305.398,1627.392c-1.528,4.843 -1.579,4.561 -5.052,7.913c-0.721,-1.039 -2.894,-0.112 -3.615,-1.151c-4.916,-7.085 7.788,-6.782 8.667,-6.761Z" style="fill:#ff00db;fill-opacity:0;"/><path d="M3680.37,3044.381c1.305,1.112 2.61,2.224 3.914,3.336c-1.432,1.69 -2.863,3.381 -4.295,5.071c-1.161,-1.929 -5.222,-0.282 -6.383,-2.212c-0.378,-0.629 0.477,-0.437 6.763,-6.195Z" style="fill:none;"/><path d="M1768.538,2400.171c4.817,-1.935 4.821,-1.922 9.538,0.136c-0.469,0.739 2.079,1.336 1.61,2.076c-3.76,5.928 -4.852,1.58 -11.148,-2.212Z" style="fill:#f400df;fill-opacity:0.01;"/><path d="M3555.37,1164.732c0.548,-0.328 6.851,-4.096 6.851,-4.096c1.42,0.806 1.211,3.327 2.631,4.132c-4.792,1.973 -4.798,1.936 -9.483,-0.037Z" style="fill:#f0e;fill-opacity:0.01;"/><path d="M2418.528,1123.263c5.002,4.813 0.103,9.928 -4.924,4.751c1.747,-3.32 1.604,-2.987 4.924,-4.751Z" style="fill:none;"/><path d="M3036.748,2827.313c5.366,2.175 5.184,3.27 2.986,8.412c-0.471,-0.925 -2.625,1.271 -3.096,0.345c-0.318,-0.624 0.008,-0.649 0.111,-8.757Z" style="fill:#ebdde3;fill-opacity:0;"/><path d="M3138.823,2291.375l1.742,1.955c-5.122,5.302 -4.928,5.953 -5.513,5.707c-0.63,-0.265 -6.727,-2.828 3.771,-7.662Z" style="fill:#fe00b3;fill-opacity:0.01;"/><path d="M3550.558,2143.74c0.682,-0.143 8.526,-1.788 8.526,-1.788c1.064,1.277 -1.005,3.709 0.059,4.987c-5.071,0.49 -4.931,0.244 -8.585,-3.199Z" style="fill:#d7afc3;fill-opacity:0;"/><path d="M2887.146,2943.643c-2.643,7.281 -2.341,7.435 -9.351,11.011c3.826,-6.587 3.796,-6.125 9.351,-11.011Z" style="fill:none;"/><path d="M4017.194,1906.411c0.025,0.289 3.954,1.7 0.434,5.037c-2.163,2.051 -2.044,1.45 -4.292,3.044c0.78,-4.798 0.867,-4.547 3.857,-8.081Z" style="fill:none;"/><path d="M3290.927,3547.724l-9.908,0c4.918,-2.562 5.109,-3.021 9.908,0Z" style="fill:none;"/><path d="M3597.96,2595.026c2.528,0.747 5.056,1.495 7.584,2.242c-4.382,0.154 -4.571,0.876 -7.584,-2.242Z" style="fill:#870059;fill-opacity:0;"/><path d="M3003.416,2898.448c-2.831,4.108 -2.577,3.888 -6.537,6.797c0.783,-1.254 0.817,-1.095 6.537,-6.797Z" style="fill:#a00056;fill-opacity:0.01;"/><path d="M1432.259,3501.669c3.382,0.976 2.804,1.407 3.418,4.499c-1.139,-1.5 -2.279,-2.999 -3.418,-4.499Z" style="fill:#541036;fill-opacity:0;"/><path d="M2429.285,1367.477l6.592,-0.926c-0.945,0.45 0.617,2.673 -0.328,3.123c-0.479,0.228 -0.464,-0.163 -6.264,-2.197Z" style="fill:none;"/><path d="M3039.834,2819.593l5.97,3.677c-1.99,-1.226 -3.98,-2.451 -5.97,-3.677Z" style="fill:#b05;fill-opacity:0.01;"/><path d="M3373.914,280.9c-1.378,3.488 -1.285,3.069 -3.38,5.819c1.127,-1.94 2.253,-3.879 3.38,-5.819Z" style="fill:#860d6f;fill-opacity:0.02;"/></g></svg>